<?xml version="1.0" encoding="utf-8"?>
<svg viewBox="0 0 376 360" xmlns="http://www.w3.org/2000/svg">
  <g stroke-width="2.00" fill="none" stroke-linecap="butt" transform="matrix(1, 0, 0, 1, 7.105427357601002e-15, 7.105427357601002e-15)">
    <path stroke="#009681" vector-effect="non-scaling-stroke" d=" M 335.85 47.21 L 337.15 47.04 A 0.40 0.40 0.0 0 1 337.56 47.62 Q 336.47 49.80 334.67 52.13 Q 330.06 58.09 326.88 64.78" data-darkreader-inline-stroke="" style="--darkreader-inline-stroke: #6ffff3;"/>
    <path stroke="#00b192" vector-effect="non-scaling-stroke" d=" M 326.88 64.78 C 323.76 68.20 324.84 69.45 324.16 73.19 Q 323.18 78.59 320.51 83.26 C 312.36 97.52 303.99 111.33 296.12 126.10 Q 295.90 126.51 296.03 126.84 A 0.33 0.33 0.0 0 0 296.63 126.87 Q 299.57 121.37 303.78 116.79 Q 304.47 116.05 305.32 116.31 A 0.71 0.70 -73.7 0 1 305.79 117.18 C 304.91 120.28 304.43 123.17 302.79 125.98 C 299.26 131.98 295.91 137.18 292.02 143.82 C 289.75 147.71 286.59 151.23 284.62 155.19 Q 283.43 157.58 282.22 160.00" data-darkreader-inline-stroke="" style="--darkreader-inline-stroke: #5cffeb;"/>
    <path stroke="#008684" vector-effect="non-scaling-stroke" d=" M 282.22 160.00 L 265.83 185.87" data-darkreader-inline-stroke="" style="--darkreader-inline-stroke: #7affff;"/>
    <path stroke="#009681" vector-effect="non-scaling-stroke" d=" M 265.83 185.87 Q 265.86 186.45 265.30 186.78" data-darkreader-inline-stroke="" style="--darkreader-inline-stroke: #6ffff3;"/>
    <path stroke="#17e5bd" vector-effect="non-scaling-stroke" d=" M 265.30 186.78 Q 264.63 186.73 264.03 184.99" data-darkreader-inline-stroke="" style="--darkreader-inline-stroke: #3cf4d1;"/>
    <path stroke="#16e5a7" vector-effect="non-scaling-stroke" d=" M 264.03 184.99 Q 265.59 182.86 265.96 181.01 Q 266.06 180.51 266.38 180.12 C 267.71 178.51 268.92 177.77 269.94 175.87 Q 271.54 172.87 273.51 170.10 C 275.80 166.87 277.15 163.25 279.42 159.95 Q 279.71 159.52 279.67 159.01 Q 279.33 155.03 279.96 153.98 C 281.27 151.81 284.39 146.78 284.20 144.32 C 284.07 142.56 283.94 141.41 284.98 139.81 Q 290.11 131.94 293.64 123.29 C 297.03 114.97 302.34 107.73 307.93 99.64 Q 313.36 91.79 319.57 80.82 Q 321.41 77.56 321.59 74.72 A 0.61 0.61 0.0 0 0 320.73 74.13 Q 317.92 75.41 315.91 78.93 Q 312.99 84.04 304.08 97.33 Q 303.83 97.70 303.09 97.50 Q 302.70 97.39 302.89 97.03 Q 308.11 87.48 313.45 78.00 C 315.36 74.63 319.11 74.06 321.11 70.74 Q 322.68 68.12 322.79 67.97 Q 327.37 61.56 330.44 54.27 A 1.60 1.50 -10.4 0 1 330.86 53.70 Q 331.64 53.04 331.76 52.11 A 0.54 0.53 -73.1 0 0 331.47 51.56 L 330.03 50.81 Q 329.49 50.52 329.71 49.96 Q 330.59 47.70 332.76 46.13" data-darkreader-inline-stroke="" style="--darkreader-inline-stroke: #3cf5be;"/>
    <path stroke="#007c70" vector-effect="non-scaling-stroke" d=" M 337.94 63.81 Q 333.89 66.22 332.26 70.86 C 328.70 81.06 323.07 88.52 316.09 96.51 A 0.31 0.31 0.0 0 1 315.57 96.18 C 317.40 92.05 320.48 88.19 322.09 84.06 C 322.99 81.74 324.68 80.32 325.26 77.99 Q 326.90 71.45 326.88 64.78" data-darkreader-inline-stroke="" style="--darkreader-inline-stroke: #81fffc;"/>
    <path stroke="#006c73" vector-effect="non-scaling-stroke" d=" M 332.58 74.47 Q 333.06 74.85 333.06 75.62 Q 333.06 76.13 332.66 76.73 C 327.40 84.79 321.70 92.54 317.77 101.47 Q 313.48 111.23 308.42 120.61 C 304.28 128.29 298.23 136.27 293.27 144.29 Q 291.13 147.74 282.22 160.00" data-darkreader-inline-stroke="" style="--darkreader-inline-stroke: #88ffff;"/>
    <path stroke="#16e5a7" vector-effect="non-scaling-stroke" d=" M 327.44 45.54 L 318.51 58.20 Q 318.27 58.54 318.64 58.72 Q 318.92 58.87 319.11 58.63 Q 324.06 52.43 328.02 45.48" data-darkreader-inline-stroke="" style="--darkreader-inline-stroke: #3cf5be;"/>
    <path stroke="#2dffc0" vector-effect="non-scaling-stroke" d=" M 264.03 184.99 L 260.85 179.28 Q 260.62 178.87 260.24 178.58 Q 259.47 178.00 259.30 177.44 Q 258.26 173.91 256.28 170.90 C 254.95 168.88 254.28 166.87 253.16 164.81" data-darkreader-inline-stroke="" style="--darkreader-inline-stroke: #45ffcf;"/>
    <path stroke="#16b084" vector-effect="non-scaling-stroke" d=" M 253.16 164.81 Q 254.66 164.74 254.52 163.79 C 256.97 159.70 259.19 155.34 261.60 151.43 Q 271.30 135.67 278.17 121.17 Q 281.67 113.77 283.89 109.99 Q 284.03 109.75 283.76 109.75 Q 283.63 109.75 283.49 109.73 Q 283.19 109.68 283.04 109.94 L 267.73 136.98" data-darkreader-inline-stroke="" style="--darkreader-inline-stroke: #62f4cb;"/>
    <path stroke="#16e5a7" vector-effect="non-scaling-stroke" d=" M 267.73 136.98 Q 264.17 139.19 262.26 143.11 Q 261.90 143.85 261.39 144.19 A 0.75 0.75 0.0 0 1 260.33 143.17 C 262.68 139.28 269.19 129.48 269.53 125.21 A 0.70 0.70 0.0 0 0 268.21 124.82 Q 266.52 127.95 264.57 131.21 Q 264.04 132.11 263.48 132.37 Q 262.42 132.85 261.69 131.66" data-darkreader-inline-stroke="" style="--darkreader-inline-stroke: #3cf5be;"/>
    <path stroke="#005161" vector-effect="non-scaling-stroke" d=" M 326.81 90.75 Q 320.14 98.23 318.69 101.93 Q 313.78 114.52 306.23 126.77 Q 290.67 152.00 276.51 173.42 C 273.74 177.62 270.93 183.06 267.72 187.76 A 0.90 0.90 0.0 0 1 266.09 187.40 L 265.83 185.87" data-darkreader-inline-stroke="" style="--darkreader-inline-stroke: #d4d0c9;"/>
    <path stroke="#17e5bd" vector-effect="non-scaling-stroke" d=" M 248.92 155.68 L 252.85 163.27" data-darkreader-inline-stroke="" style="--darkreader-inline-stroke: #3cf4d1;"/>
    <path stroke="#17b09a" vector-effect="non-scaling-stroke" d=" M 252.85 163.27 Q 252.68 163.90 253.16 164.81" data-darkreader-inline-stroke="" style="--darkreader-inline-stroke: #63f3df;"/>
    <path stroke="#17e5bd" vector-effect="non-scaling-stroke" d=" M 269.75 195.74 L 269.74 196.92 A 0.60 0.60 0.0 0 1 268.63 197.22 L 266.79 194.19" data-darkreader-inline-stroke="" style="--darkreader-inline-stroke: #3cf4d1;"/>
    <path stroke="#2dffc0" vector-effect="non-scaling-stroke" d=" M 266.79 194.19 L 249.32 164.11" data-darkreader-inline-stroke="" style="--darkreader-inline-stroke: #45ffcf;"/>
    <path stroke="#17e5bd" vector-effect="non-scaling-stroke" d=" M 249.32 164.11 L 236.70 141.34 Q 236.50 140.96 236.19 141.26 L 235.98 141.48 Q 235.68 141.78 235.87 142.16 Q 247.77 166.97 259.03 192.07 Q 261.03 196.53 263.75 201.77 Q 266.16 206.44 268.59 211.43" data-darkreader-inline-stroke="" style="--darkreader-inline-stroke: #3cf4d1;"/>
    <path stroke="#2dffc0" vector-effect="non-scaling-stroke" d=" M 268.59 211.43 Q 266.37 212.40 263.17 207.86" data-darkreader-inline-stroke="" style="--darkreader-inline-stroke: #45ffcf;"/>
    <path stroke="#17e5bd" vector-effect="non-scaling-stroke" d=" M 263.17 207.86 L 253.22 192.27" data-darkreader-inline-stroke="" style="--darkreader-inline-stroke: #3cf4d1;"/>
    <path stroke="#2dffc0" vector-effect="non-scaling-stroke" d=" M 253.22 192.27 L 254.51 189.87 Q 254.74 189.43 254.52 188.99 L 237.13 154.10 Q 237.00 153.84 237.00 153.55 Q 237.00 153.40 237.00 153.24 Q 237.00 152.79 236.74 152.42 C 235.01 150.01 233.85 147.20 231.00 144.26 Q 229.25 142.45 228.01 140.33 Q 223.24 132.18 217.21 124.61 A 0.35 0.35 0.0 0 0 216.62 124.97 L 219.88 132.40" data-darkreader-inline-stroke="" style="--darkreader-inline-stroke: #45ffcf;"/>
    <path stroke="#17e5bd" vector-effect="non-scaling-stroke" d=" M 219.88 132.40 Q 220.00 134.20 220.57 135.44 Q 227.38 150.40 234.29 165.21" data-darkreader-inline-stroke="" style="--darkreader-inline-stroke: #3cf4d1;"/>
    <path stroke="#2dffc0" vector-effect="non-scaling-stroke" d=" M 234.29 165.21 Q 234.60 167.98 235.75 170.53 Q 239.90 179.76 242.42 189.57 C 243.01 191.85 243.78 193.81 244.67 195.98 A 0.61 0.61 0.0 0 1 243.69 196.66 C 239.30 192.58 238.17 188.19 234.99 183.49 Q 234.02 182.04 232.81 179.69 Q 223.58 161.65 215.85 142.48 A 0.97 0.93 43.7 0 1 215.82 141.84 Q 216.22 140.55 216.89 141.34 Q 219.98 144.98 222.35 149.11 Q 222.73 149.77 223.46 149.72 A 0.39 0.39 0.0 0 0 223.75 149.11 C 221.49 145.73 220.43 142.03 219.13 138.78 Q 213.93 125.78 209.06 112.64 Q 208.73 111.74 208.27 112.58 Q 207.80 113.43 208.01 114.48 A 0.55 0.55 0.0 0 1 207.60 115.12 L 206.13 115.48 A 1.03 1.03 0.0 0 0 205.52 117.06 Q 208.35 121.23 208.66 126.04 C 208.95 130.53 211.55 135.32 213.13 139.55 C 214.16 142.33 216.31 145.55 217.08 149.01 C 219.84 161.32 227.64 171.63 232.26 183.20 A 0.83 0.83 0.0 0 1 231.30 184.32 Q 228.77 183.71 226.07 180.36" data-darkreader-inline-stroke="" style="--darkreader-inline-stroke: #45ffcf;"/>
    <path stroke="#17e5bd" vector-effect="non-scaling-stroke" d=" M 226.07 180.36 C 222.75 171.30 218.90 162.27 214.17 153.65 C 210.25 146.48 207.07 138.10 201.45 127.08 Q 201.21 126.62 200.72 126.78 L 198.85 127.38" data-darkreader-inline-stroke="" style="--darkreader-inline-stroke: #3cf4d1;"/>
    <path stroke="#005161" vector-effect="non-scaling-stroke" d=" M 328.43 108.40 L 325.43 111.92 Q 325.25 112.13 325.06 111.93 L 324.85 111.72 Q 324.69 111.56 324.80 111.36 L 326.45 108.43 A 0.36 0.36 0.0 0 0 325.92 107.96 Q 318.18 113.59 319.75 123.27 Q 319.80 123.60 320.02 123.35 C 322.35 120.70 326.29 119.12 328.14 116.83 C 328.85 115.96 329.95 115.24 330.11 114.20 Q 330.27 113.17 329.24 112.70 Q 328.76 112.48 328.77 111.95 L 328.88 108.41" data-darkreader-inline-stroke="" style="--darkreader-inline-stroke: #d4d0c9;"/>
    <path stroke="#009681" vector-effect="non-scaling-stroke" d=" M 270.45 196.25 L 269.75 195.74" data-darkreader-inline-stroke="" style="--darkreader-inline-stroke: #6ffff3;"/>
    <path stroke="#17b09a" vector-effect="non-scaling-stroke" d=" M 269.75 195.74 L 265.30 186.78" data-darkreader-inline-stroke="" style="--darkreader-inline-stroke: #63f3df;"/>
    <path stroke="#16e5a7" vector-effect="non-scaling-stroke" d=" M 316.76 51.88 C 313.84 58.28 310.35 65.34 305.32 70.24 Q 301.10 74.35 298.23 79.56 Q 298.06 79.88 297.82 79.97 Q 297.59 80.06 297.37 80.02 Q 296.85 79.92 297.07 79.44 L 304.14 64.07 A 0.44 0.43 -4.5 0 0 303.50 63.53 C 301.66 64.75 301.03 67.15 298.51 66.98" data-darkreader-inline-stroke="" style="--darkreader-inline-stroke: #3cf5be;"/>
    <path stroke="#009681" vector-effect="non-scaling-stroke" d=" M 252.85 163.27 C 256.82 156.46 260.64 149.56 264.80 142.85 Q 266.53 140.07 267.73 136.98" data-darkreader-inline-stroke="" style="--darkreader-inline-stroke: #6ffff3;"/>
    <path stroke="#16e5a7" vector-effect="non-scaling-stroke" d=" M 263.17 207.86 Q 263.39 208.72 263.19 209.15 Q 262.91 209.75 262.55 209.20 Q 259.52 204.75 256.76 200.13 C 254.73 196.75 251.96 193.75 249.61 190.42 A 0.88 0.88 0.0 0 0 248.07 191.26 Q 251.59 199.95 255.84 208.86 C 258.07 213.54 261.59 217.74 263.72 221.94 C 265.93 226.30 273.74 243.96 277.38 245.59 Q 277.85 245.80 278.13 246.23 C 287.82 261.13 294.26 270.96 300.75 285.32" data-darkreader-inline-stroke="" style="--darkreader-inline-stroke: #3cf5be;"/>
    <path stroke="#00b192" vector-effect="non-scaling-stroke" d=" M 300.75 285.32 Q 295.27 277.43 290.45 269.31 Q 289.65 267.95 288.54 268.08 Q 287.98 268.15 288.15 268.68 L 291.51 279.16 A 0.67 0.67 0.0 0 1 290.27 279.64 Q 285.43 269.04 280.60 259.13 Q 280.29 258.50 279.89 258.47 Q 279.37 258.43 278.87 259.15" data-darkreader-inline-stroke="" style="--darkreader-inline-stroke: #5cffeb;"/>
    <path stroke="#16e5a7" vector-effect="non-scaling-stroke" d=" M 278.87 259.15 L 270.49 240.58 Q 270.24 240.02 269.77 240.41 Q 268.85 241.16 269.47 242.53 Q 271.88 247.86 274.32 253.17 C 275.53 255.77 276.91 260.19 278.98 263.46 Q 279.28 263.94 279.74 263.60 L 280.62 262.95" data-darkreader-inline-stroke="" style="--darkreader-inline-stroke: #3cf5be;"/>
    <path stroke="#00b192" vector-effect="non-scaling-stroke" d=" M 280.62 262.95 Q 283.04 267.54 284.72 272.44 C 285.35 274.30 286.78 276.42 287.03 278.68 A 0.65 0.65 0.0 0 1 285.85 279.11 C 281.88 273.19 278.72 267.67 275.52 260.77 Q 264.58 237.17 252.80 213.69" data-darkreader-inline-stroke="" style="--darkreader-inline-stroke: #5cffeb;"/>
    <path stroke="#009681" vector-effect="non-scaling-stroke" d=" M 241.82 179.47 Q 242.24 179.96 242.91 179.56 A 1.00 0.99 -30.2 0 0 243.27 178.22 L 236.29 165.50 A 0.61 0.61 0.0 0 0 235.47 165.25 Q 235.10 165.45 234.79 165.86" data-darkreader-inline-stroke="" style="--darkreader-inline-stroke: #6ffff3;"/>
    <path stroke="#16e5a7" vector-effect="non-scaling-stroke" d=" M 249.32 164.11 Q 251.34 173.81 256.58 182.77" data-darkreader-inline-stroke="" style="--darkreader-inline-stroke: #3cf5be;"/>
    <path stroke="#17e5bd" vector-effect="non-scaling-stroke" d=" M 256.58 182.77 L 262.92 195.57" data-darkreader-inline-stroke="" style="--darkreader-inline-stroke: #3cf4d1;"/>
    <path stroke="#16e5a7" vector-effect="non-scaling-stroke" d=" M 262.92 195.57 Q 265.36 200.90 267.85 206.21 Q 268.02 206.56 268.28 206.68 Q 268.62 206.83 269.03 206.73 Q 269.51 206.62 269.30 206.18 L 267.90 203.16 Q 267.73 202.81 268.02 202.54 L 268.64 201.99 Q 269.00 201.67 268.78 201.23 L 265.67 195.09 Q 265.43 194.62 265.95 194.54 Q 266.43 194.46 266.79 194.19" data-darkreader-inline-stroke="" style="--darkreader-inline-stroke: #3cf5be;"/>
    <path stroke="#00b192" vector-effect="non-scaling-stroke" d=" M 321.74 295.08 Q 322.22 296.86 318.91 295.86 Q 318.40 295.71 318.17 295.24 Q 313.18 285.01 306.96 275.49 A 1.15 1.09 26.9 0 1 306.80 275.04 Q 306.59 273.02 305.16 271.49 A 1.65 1.60 18.7 0 1 304.77 270.73 Q 304.22 268.18 301.99 265.00 Q 299.62 261.60 295.67 251.77 A 1.24 1.20 -89.1 0 0 295.07 251.13 Q 293.52 250.42 293.74 248.74 A 1.40 1.39 30.7 0 0 293.48 247.74 Q 292.00 245.74 290.97 242.83 Q 289.39 238.38 285.61 235.13" data-darkreader-inline-stroke="" style="--darkreader-inline-stroke: #5cffeb;"/>
    <path stroke="#009681" vector-effect="non-scaling-stroke" d=" M 285.61 235.13 Q 278.97 222.08 272.08 208.93 Q 271.56 207.95 270.88 207.75 A 0.35 0.35 0.0 0 0 270.47 208.25 C 275.87 218.83 280.73 230.58 288.48 244.79 Q 290.60 248.67 292.32 252.65" data-darkreader-inline-stroke="" style="--darkreader-inline-stroke: #6ffff3;"/>
    <path stroke="#00b192" vector-effect="non-scaling-stroke" d=" M 292.32 252.65 C 292.97 257.45 295.36 261.02 297.07 264.75 Q 302.03 275.57 307.51 286.49" data-darkreader-inline-stroke="" style="--darkreader-inline-stroke: #5cffeb;"/>
    <path stroke="#16e5a7" vector-effect="non-scaling-stroke" d=" M 307.51 286.49 C 304.82 284.92 304.63 282.54 302.79 280.18 C 301.52 278.56 300.48 275.54 299.87 274.38 Q 295.34 265.77 291.67 256.75 C 290.93 254.95 289.42 253.33 288.70 251.80 Q 278.95 231.28 268.59 211.43" data-darkreader-inline-stroke="" style="--darkreader-inline-stroke: #3cf5be;"/>
    <path stroke="#16e5a7" vector-effect="non-scaling-stroke" d=" M 234.29 165.21 Q 235.09 165.77 234.79 165.86" data-darkreader-inline-stroke="" style="--darkreader-inline-stroke: #3cf5be;"/>
    <path stroke="#16b084" vector-effect="non-scaling-stroke" d=" M 234.79 165.86 L 241.82 179.47" data-darkreader-inline-stroke="" style="--darkreader-inline-stroke: #62f4cb;"/>
    <path stroke="#16e5a7" vector-effect="non-scaling-stroke" d=" M 241.82 179.47 Q 241.56 181.18 241.94 182.00 Q 250.89 201.14 259.17 220.59 Q 259.45 221.25 258.74 221.25 L 258.29 221.25 Q 257.74 221.25 257.44 220.79 L 252.80 213.69" data-darkreader-inline-stroke="" style="--darkreader-inline-stroke: #3cf5be;"/>
    <path stroke="#16cb96" vector-effect="non-scaling-stroke" d=" M 252.80 213.69 Q 251.13 208.86 246.96 203.39 A 0.60 0.60 0.0 0 0 245.89 203.87 C 246.86 208.69 249.98 213.75 252.22 218.22 Q 252.48 218.75 251.95 218.99 L 250.66 219.58 Q 250.04 219.86 250.01 219.18 Q 249.92 217.35 247.55 216.35" data-darkreader-inline-stroke="" style="--darkreader-inline-stroke: #4ff5c5;"/>
    <path stroke="#16a087" vector-effect="non-scaling-stroke" d=" M 247.55 216.35 L 235.41 194.17 A 0.36 0.35 17.8 0 0 234.78 194.49 L 245.33 215.73" data-darkreader-inline-stroke="" style="--darkreader-inline-stroke: #6ef3dc;"/>
    <path stroke="#16e5a7" vector-effect="non-scaling-stroke" d=" M 245.33 215.73 Q 245.30 216.58 244.56 216.71 Q 244.05 216.81 243.79 216.36 C 236.88 204.51 231.99 193.76 226.07 180.36" data-darkreader-inline-stroke="" style="--darkreader-inline-stroke: #3cf5be;"/>
    <path stroke="#008684" vector-effect="non-scaling-stroke" d=" M 245.33 215.73 L 251.12 226.20" data-darkreader-inline-stroke="" style="--darkreader-inline-stroke: #7affff;"/>
    <path stroke="#00b192" vector-effect="non-scaling-stroke" d=" M 251.12 226.20 Q 251.03 227.53 250.19 228.16 Q 249.79 228.46 249.98 228.91 L 250.75 230.72 Q 250.94 231.17 250.55 231.46 Q 250.25 231.69 249.64 231.57" data-darkreader-inline-stroke="" style="--darkreader-inline-stroke: #5cffeb;"/>
    <path stroke="#009681" vector-effect="non-scaling-stroke" d=" M 224.11 258.10 C 223.99 257.40 224.20 256.46 224.66 255.83 Q 231.25 246.85 237.23 237.46 Q 239.17 234.41 246.39 227.34 Q 246.83 226.91 246.53 226.38 L 244.59 223.04 A 0.33 0.32 -51.6 0 0 244.00 223.11 Q 243.10 225.95 241.39 228.43 Q 232.99 240.59 224.74 252.90" data-darkreader-inline-stroke="" style="--darkreader-inline-stroke: #6ffff3;"/>
    <path stroke="#16e5a7" vector-effect="non-scaling-stroke" d=" M 224.74 252.90 Q 224.85 248.72 226.78 246.04 Q 233.65 236.54 236.98 230.54 A 1.15 1.12 -86.9 0 1 237.48 230.08 Q 238.34 229.68 238.46 228.35 A 1.48 1.13 -34.5 0 0 235.89 228.22 Q 226.45 244.74 213.74 258.97 Q 213.07 259.73 212.68 258.79 L 212.29 257.84 A 0.49 0.48 62.8 0 0 211.59 257.61 Q 210.27 258.44 209.86 259.92 Q 209.67 260.62 209.03 260.27 L 208.37 259.92 A 0.66 0.66 0.0 0 1 208.12 258.99 L 218.51 242.03 A 0.16 0.16 0.0 0 0 218.42 241.79 Q 217.65 241.57 217.69 242.30 Q 217.72 243.00 217.05 242.82 L 216.28 242.62 Q 215.70 242.47 215.97 241.94 Q 217.56 238.83 218.43 237.68 C 223.16 231.44 227.40 225.17 232.75 219.16 Q 235.95 215.57 238.66 211.89 A 1.80 1.77 -40.5 0 0 238.82 210.03 Q 234.37 201.20 230.17 192.57 Q 229.84 191.89 229.01 191.97" data-darkreader-inline-stroke="" style="--darkreader-inline-stroke: #3cf5be;"/>
    <path stroke="#16e5a7" vector-effect="non-scaling-stroke" d=" M 253.22 192.27 C 249.05 185.18 245.87 179.63 241.13 170.84 C 237.65 164.37 233.16 157.84 230.70 150.23 A 1.04 1.03 1.9 0 0 230.10 149.59 C 228.10 148.80 229.10 146.25 227.23 144.77 A 1.92 1.89 8.6 0 1 226.63 143.97 Q 224.18 137.75 219.88 132.40" data-darkreader-inline-stroke="" style="--darkreader-inline-stroke: #3cf5be;"/>
    <path stroke="#2dffc0" vector-effect="non-scaling-stroke" d=" M 262.92 195.57 Q 264.26 195.47 264.46 194.58 Q 264.59 194.03 264.06 193.14 Q 260.91 187.77 258.23 182.43 A 0.97 0.97 0.0 0 0 256.81 182.07 Q 256.32 182.41 256.58 182.77" data-darkreader-inline-stroke="" style="--darkreader-inline-stroke: #45ffcf;"/>
    <path stroke="#16cb96" vector-effect="non-scaling-stroke" d=" M 307.51 286.49 Q 309.77 292.46 312.81 298.34 C 315.32 303.18 316.85 307.51 318.49 312.33 A 0.51 0.51 0.0 0 1 317.57 312.76 L 300.75 285.32" data-darkreader-inline-stroke="" style="--darkreader-inline-stroke: #4ff5c5;"/>
    <path stroke="#007c70" vector-effect="non-scaling-stroke" d=" M 336.20 86.90 L 329.39 93.78 A 0.53 0.52 54.8 0 1 328.54 93.63 Q 328.42 93.37 328.45 92.98" data-darkreader-inline-stroke="" style="--darkreader-inline-stroke: #81fffc;"/>
    <path stroke="#16cb96" vector-effect="non-scaling-stroke" d=" M 280.62 262.95 L 278.87 259.15" data-darkreader-inline-stroke="" style="--darkreader-inline-stroke: #4ff5c5;"/>
    <path stroke="#007c70" vector-effect="non-scaling-stroke" d=" M 292.32 252.65 Q 297.76 264.73 305.15 275.80 A 0.67 0.67 0.0 0 0 306.28 275.78 Q 306.69 275.12 306.30 274.92 Q 306.00 274.77 305.87 274.45 C 304.61 271.12 302.37 269.24 301.10 265.95 Q 300.17 263.58 298.71 261.47 C 296.63 258.46 294.68 253.92 293.30 250.58 C 291.15 245.38 287.71 240.63 285.61 235.13" data-darkreader-inline-stroke="" style="--darkreader-inline-stroke: #81fffc;"/>
    <path stroke="#006c73" vector-effect="non-scaling-stroke" d=" M 311.04 310.70 Q 308.59 301.61 301.96 294.83 A 0.08 0.08 0.0 0 0 301.82 294.90 L 308.53 322.34 Q 308.57 322.50 308.74 322.50 Q 308.87 322.50 309.01 322.50 A 0.23 0.23 0.0 0 0 309.23 322.21 Q 307.84 317.24 309.54 312.84" data-darkreader-inline-stroke="" style="--darkreader-inline-stroke: #88ffff;"/>
    <path stroke="#00b192" vector-effect="non-scaling-stroke" d=" M 301.07 317.68 Q 299.04 315.84 298.20 312.06 Q 297.97 311.01 298.94 311.46 L 300.08 311.98 A 0.59 0.59 0.0 0 0 300.79 311.08 Q 295.15 303.83 292.70 295.23" data-darkreader-inline-stroke="" style="--darkreader-inline-stroke: #5cffeb;"/>
    <path stroke="#006c73" vector-effect="non-scaling-stroke" d=" M 247.55 216.35 C 255.04 229.64 262.75 242.61 269.73 256.22 C 275.86 268.17 284.20 280.58 292.34 291.20 C 295.32 295.09 297.41 298.82 298.52 302.99 Q 298.67 303.57 298.14 303.71 Q 297.79 303.81 297.65 303.47 Q 295.81 299.04 292.70 295.23" data-darkreader-inline-stroke="" style="--darkreader-inline-stroke: #88ffff;"/>
    <path stroke="#008684" vector-effect="non-scaling-stroke" d=" M 292.70 295.23 Q 290.87 291.25 287.54 287.87 A 0.44 0.44 0.0 0 0 286.80 288.26 Q 287.82 293.60 290.54 298.37" data-darkreader-inline-stroke="" style="--darkreader-inline-stroke: #7affff;"/>
    <path stroke="#006c73" vector-effect="non-scaling-stroke" d=" M 290.54 298.37 L 290.70 301.83 A 0.34 0.34 0.0 0 1 290.07 302.01 C 289.35 300.80 288.37 299.64 287.77 298.37 Q 270.60 261.70 251.12 226.20" data-darkreader-inline-stroke="" style="--darkreader-inline-stroke: #88ffff;"/>
    <path stroke="#00b192" vector-effect="non-scaling-stroke" d=" M 290.54 298.37 Q 295.16 310.14 299.84 321.83 C 300.43 323.28 300.73 325.07 301.06 326.61 C 301.39 328.20 302.32 329.05 303.00 330.50 A 0.62 0.60 62.1 0 1 302.77 331.28 L 300.89 332.46" data-darkreader-inline-stroke="" style="--darkreader-inline-stroke: #5cffeb;"/>
    <path stroke="#16b084" vector-effect="non-scaling-stroke" d=" M 224.74 252.90 Q 221.80 255.99 220.27 260.07 Q 220.10 260.54 219.64 260.75 Q 218.51 261.26 218.58 260.02" data-darkreader-inline-stroke="" style="--darkreader-inline-stroke: #62f4cb;"/>
    <path stroke="#16e5a7" vector-effect="non-scaling-stroke" d=" M 199.90 261.87 L 202.14 258.37 Q 202.40 257.96 202.15 257.54 L 202.02 257.31 Q 201.95 257.20 202.01 257.08 L 203.28 254.11 Q 203.82 252.85 202.91 253.87 Q 201.18 255.81 200.34 258.31 A 0.99 0.98 3.2 0 1 199.62 258.95 Q 198.07 259.28 197.92 258.25" data-darkreader-inline-stroke="" style="--darkreader-inline-stroke: #3cf5be;"/>
    <path stroke="#16cb96" vector-effect="non-scaling-stroke" d=" M 197.92 258.25 L 200.38 251.67" data-darkreader-inline-stroke="" style="--darkreader-inline-stroke: #4ff5c5;"/>
    <path stroke="#16b084" vector-effect="non-scaling-stroke" d=" M 200.38 251.67 L 231.33 199.13 Q 231.62 198.64 231.08 198.50 Q 230.84 198.43 230.58 198.51 Q 230.24 198.63 229.95 199.13 Q 225.61 206.77 220.76 214.02" data-darkreader-inline-stroke="" style="--darkreader-inline-stroke: #62f4cb;"/>
    <path stroke="#16e5a7" vector-effect="non-scaling-stroke" d=" M 220.76 214.02 L 219.01 213.86 Q 218.36 213.80 218.68 213.23 L 225.40 201.13 Q 225.63 200.70 225.43 200.26 Q 225.10 199.53 224.37 199.21" data-darkreader-inline-stroke="" style="--darkreader-inline-stroke: #3cf5be;"/>
    <path stroke="#00b192" vector-effect="non-scaling-stroke" d=" M 197.92 258.25 L 196.00 262.46" data-darkreader-inline-stroke="" style="--darkreader-inline-stroke: #5cffeb;"/>
    <path stroke="#007c70" vector-effect="non-scaling-stroke" d=" M 200.38 251.67 Q 199.53 252.07 199.29 251.88 Q 199.08 251.72 199.40 251.18 C 200.47 249.33 201.99 246.20 198.61 245.89" data-darkreader-inline-stroke="" style="--darkreader-inline-stroke: #81fffc;"/>
    <path stroke="#009681" vector-effect="non-scaling-stroke" d=" M 210.36 224.29 C 214.58 226.67 219.05 216.69 220.76 214.02" data-darkreader-inline-stroke="" style="--darkreader-inline-stroke: #6ffff3;"/>
    <path stroke="#2dffc0" vector-effect="non-scaling-stroke" d=" M 304.96 81.04 Q 296.62 93.77 290.09 107.52 C 289.38 109.03 287.94 110.33 286.98 111.79 Q 286.75 112.15 287.14 112.31 Q 289.27 113.18 290.26 111.52 C 294.29 104.72 297.59 96.47 301.80 89.45 Q 304.32 85.24 306.56 80.70 A 0.63 0.63 0.0 0 0 306.10 79.80 Q 305.56 79.71 305.32 80.28 Q 305.06 80.89 304.96 81.04" data-darkreader-inline-stroke="" style="--darkreader-inline-stroke: #45ffcf;"/>
    <path stroke="#16e5a7" vector-effect="non-scaling-stroke" d=" M 276.7880 132.9721 A 0.51 0.51 0.0 0 0 276.6038 132.2748 L 276.5692 132.2547 A 0.51 0.51 0.0 0 0 275.8719 132.4389 L 255.8920 166.7679 A 0.51 0.51 0.0 0 0 256.0762 167.4652 L 256.1108 167.4853 A 0.51 0.51 0.0 0 0 256.8081 167.3011 L 276.7880 132.9721" data-darkreader-inline-stroke="" style="--darkreader-inline-stroke: #3cf5be;"/>
    <path stroke="#00b192" vector-effect="non-scaling-stroke" d=" M 235.08 220.64 C 231.69 224.07 227.68 230.37 225.61 234.58 Q 225.40 235.03 225.47 235.51 L 225.80 237.72 A 0.48 0.47 -25.4 0 0 226.59 238.00 Q 234.05 231.17 236.09 221.18 A 0.60 0.60 0.0 0 0 235.08 220.64" data-darkreader-inline-stroke="" style="--darkreader-inline-stroke: #5cffeb;"/>
    <path stroke="#16e5a7" vector-effect="non-scaling-stroke" d=" M 205.73 246.83 L 206.45 247.27 A 0.21 0.21 0.0 0 0 206.73 247.20 L 206.79 247.12 A 51.69 0.53 -58.3 0 0 233.50 202.86 L 233.33 202.76 A 51.69 0.53 -58.3 0 0 205.71 246.46 L 205.66 246.54 A 0.21 0.21 0.0 0 0 205.73 246.83" data-darkreader-inline-stroke="" style="--darkreader-inline-stroke: #3cf5be;"/>
  </g>
  <path fill="#00cba3" d=" M 335.85 47.21 L 337.15 47.04 A 0.40 0.40 0.0 0 1 337.56 47.62 Q 336.47 49.80 334.67 52.13 Q 330.06 58.09 326.88 64.78 C 323.76 68.20 324.84 69.45 324.16 73.19 Q 323.18 78.59 320.51 83.26 C 312.36 97.52 303.99 111.33 296.12 126.10 Q 295.90 126.51 296.03 126.84 A 0.33 0.33 0.0 0 0 296.63 126.87 Q 299.57 121.37 303.78 116.79 Q 304.47 116.05 305.32 116.31 A 0.71 0.70 -73.7 0 1 305.79 117.18 C 304.91 120.28 304.43 123.17 302.79 125.98 C 299.26 131.98 295.91 137.18 292.02 143.82 C 289.75 147.71 286.59 151.23 284.62 155.19 Q 283.43 157.58 282.22 160.00 L 265.83 185.87 Q 265.86 186.45 265.30 186.78 Q 264.63 186.73 264.03 184.99 Q 265.59 182.86 265.96 181.01 Q 266.06 180.51 266.38 180.12 C 267.71 178.51 268.92 177.77 269.94 175.87 Q 271.54 172.87 273.51 170.10 C 275.80 166.87 277.15 163.25 279.42 159.95 Q 279.71 159.52 279.67 159.01 Q 279.33 155.03 279.96 153.98 C 281.27 151.81 284.39 146.78 284.20 144.32 C 284.07 142.56 283.94 141.41 284.98 139.81 Q 290.11 131.94 293.64 123.29 C 297.03 114.97 302.34 107.73 307.93 99.64 Q 313.36 91.79 319.57 80.82 Q 321.41 77.56 321.59 74.72 A 0.61 0.61 0.0 0 0 320.73 74.13 Q 317.92 75.41 315.91 78.93 Q 312.99 84.04 304.08 97.33 Q 303.83 97.70 303.09 97.50 Q 302.70 97.39 302.89 97.03 Q 308.11 87.48 313.45 78.00 C 315.36 74.63 319.11 74.06 321.11 70.74 Q 322.68 68.12 322.79 67.97 Q 327.37 61.56 330.44 54.27 A 1.60 1.50 -10.4 0 1 330.86 53.70 Q 331.64 53.04 331.76 52.11 A 0.54 0.53 -73.1 0 0 331.47 51.56 L 330.03 50.81 Q 329.49 50.52 329.71 49.96 Q 330.59 47.70 332.76 46.13 Q 342.16 30.27 352.60 15.43 Q 352.94 14.93 353.01 15.53 Q 353.04 15.84 352.87 16.15 Q 348.57 23.99 344.04 31.71 C 341.69 35.73 339.13 41.48 335.99 46.07 Q 335.81 46.32 335.73 46.60 Q 335.32 47.95 335.85 47.21 Z" data-darkreader-inline-fill="" style="--darkreader-inline-fill: #0dad8d;" transform="matrix(1, 0, 0, 1, 7.105427357601002e-15, 7.105427357601002e-15)"/>
  <path fill="#00cba3" d=" M 316.76 51.88 C 313.84 58.28 310.35 65.34 305.32 70.24 Q 301.10 74.35 298.23 79.56 Q 298.06 79.88 297.82 79.97 Q 297.59 80.06 297.37 80.02 Q 296.85 79.92 297.07 79.44 L 304.14 64.07 A 0.44 0.43 -4.5 0 0 303.50 63.53 C 301.66 64.75 301.03 67.15 298.51 66.98 C 302.14 59.70 307.77 51.36 310.85 46.26 C 315.61 38.38 320.17 30.08 325.87 22.83 A 0.34 0.33 -14.1 0 1 326.44 23.17 L 324.76 27.01 A 0.42 0.41 -3.8 0 0 325.36 27.53 C 327.82 26.06 331.64 18.99 333.60 16.36 Q 333.97 15.88 334.23 16.43 Q 334.30 16.58 334.31 16.80 Q 334.32 16.98 334.19 17.19 C 327.76 28.10 320.08 39.86 315.82 51.78 Q 315.67 52.20 316.76 51.88 Z" data-darkreader-inline-fill="" style="--darkreader-inline-fill: #0dad8d;" transform="matrix(1, 0, 0, 1, 7.105427357601002e-15, 7.105427357601002e-15)"/>
  <path fill="#00615e" d=" M 337.94 63.81 Q 333.89 66.22 332.26 70.86 C 328.70 81.06 323.07 88.52 316.09 96.51 A 0.31 0.31 0.0 0 1 315.57 96.18 C 317.40 92.05 320.48 88.19 322.09 84.06 C 322.99 81.74 324.68 80.32 325.26 77.99 Q 326.90 71.45 326.88 64.78 Q 330.06 58.09 334.67 52.13 Q 336.47 49.80 337.56 47.62 A 0.40 0.40 0.0 0 0 337.15 47.04 L 335.85 47.21 L 341.97 40.50 Q 343.09 39.27 343.30 40.89 Q 343.32 41.02 343.02 41.88 Q 340.61 48.79 337.34 55.33 Q 337.11 55.80 337.50 56.13 Q 337.61 56.22 337.69 56.33 Q 337.99 56.69 338.13 56.24 Q 338.76 54.22 340.04 52.55 Q 348.16 41.93 355.38 30.70 Q 355.56 30.41 355.79 30.66 Q 355.90 30.78 356.00 30.87 Q 356.05 30.92 356.02 30.99 C 353.83 35.67 351.72 40.11 348.93 44.67 Q 342.97 54.43 337.94 63.81 Z" data-darkreader-inline-fill="" style="--darkreader-inline-fill: #0d5a57;" transform="matrix(1, 0, 0, 1, 7.105427357601002e-15, 7.105427357601002e-15)"/>
  <path fill="#2cffaa" d=" M 327.44 45.54 L 318.51 58.20 Q 318.27 58.54 318.64 58.72 Q 318.92 58.87 319.11 58.63 Q 324.06 52.43 328.02 45.48 L 335.12 36.63 A 0.46 0.46 0.0 0 1 335.92 37.07 L 332.76 46.13 Q 330.59 47.70 329.71 49.96 Q 329.49 50.52 330.03 50.81 L 331.47 51.56 A 0.54 0.53 -73.1 0 1 331.76 52.11 Q 331.64 53.04 330.86 53.70 A 1.60 1.50 -10.4 0 0 330.44 54.27 Q 327.37 61.56 322.79 67.97 Q 322.68 68.12 321.11 70.74 C 319.11 74.06 315.36 74.63 313.45 78.00 Q 308.11 87.48 302.89 97.03 Q 302.70 97.39 303.09 97.50 Q 303.83 97.70 304.08 97.33 Q 312.99 84.04 315.91 78.93 Q 317.92 75.41 320.73 74.13 A 0.61 0.61 0.0 0 1 321.59 74.72 Q 321.41 77.56 319.57 80.82 Q 313.36 91.79 307.93 99.64 C 302.34 107.73 297.03 114.97 293.64 123.29 Q 290.11 131.94 284.98 139.81 C 283.94 141.41 284.07 142.56 284.20 144.32 C 284.39 146.78 281.27 151.81 279.96 153.98 Q 279.33 155.03 279.67 159.01 Q 279.71 159.52 279.42 159.95 C 277.15 163.25 275.80 166.87 273.51 170.10 Q 271.54 172.87 269.94 175.87 C 268.92 177.77 267.71 178.51 266.38 180.12 Q 266.06 180.51 265.96 181.01 Q 265.59 182.86 264.03 184.99 L 260.85 179.28 Q 260.62 178.87 260.24 178.58 Q 259.47 178.00 259.30 177.44 Q 258.26 173.91 256.28 170.90 C 254.95 168.88 254.28 166.87 253.16 164.81 Q 254.66 164.74 254.52 163.79 C 256.97 159.70 259.19 155.34 261.60 151.43 Q 271.30 135.67 278.17 121.17 Q 281.67 113.77 283.89 109.99 Q 284.03 109.75 283.76 109.75 Q 283.63 109.75 283.49 109.73 Q 283.19 109.68 283.04 109.94 L 267.73 136.98 Q 264.17 139.19 262.26 143.11 Q 261.90 143.85 261.39 144.19 A 0.75 0.75 0.0 0 1 260.33 143.17 C 262.68 139.28 269.19 129.48 269.53 125.21 A 0.70 0.70 0.0 0 0 268.21 124.82 Q 266.52 127.95 264.57 131.21 Q 264.04 132.11 263.48 132.37 Q 262.42 132.85 261.69 131.66 L 298.51 66.98 C 301.03 67.15 301.66 64.75 303.50 63.53 A 0.44 0.43 -4.5 0 1 304.14 64.07 L 297.07 79.44 Q 296.85 79.92 297.37 80.02 Q 297.59 80.06 297.82 79.97 Q 298.06 79.88 298.23 79.56 Q 301.10 74.35 305.32 70.24 C 310.35 65.34 313.84 58.28 316.76 51.88 L 331.43 35.05 A 0.51 0.51 0.0 0 1 332.27 35.60 L 327.44 45.54 Z M 304.96 81.04 Q 296.62 93.77 290.09 107.52 C 289.38 109.03 287.94 110.33 286.98 111.79 Q 286.75 112.15 287.14 112.31 Q 289.27 113.18 290.26 111.52 C 294.29 104.72 297.59 96.47 301.80 89.45 Q 304.32 85.24 306.56 80.70 A 0.63 0.63 0.0 0 0 306.10 79.80 Q 305.56 79.71 305.32 80.28 Q 305.06 80.89 304.96 81.04 Z M 276.7880 132.9721 A 0.51 0.51 0.0 0 0 276.6038 132.2748 L 276.5692 132.2547 A 0.51 0.51 0.0 0 0 275.8719 132.4389 L 255.8920 166.7679 A 0.51 0.51 0.0 0 0 256.0762 167.4652 L 256.1108 167.4853 A 0.51 0.51 0.0 0 0 256.8081 167.3011 L 276.7880 132.9721 Z" data-darkreader-inline-fill="" style="--darkreader-inline-fill: #0dbd88;" transform="matrix(1, 0, 0, 1, 7.105427357601002e-15, 7.105427357601002e-15)"/>
  <path fill="#00cba3" d=" M 327.44 45.54 Q 327.72 45.45 328.02 45.48 Q 324.06 52.43 319.11 58.63 Q 318.92 58.87 318.64 58.72 Q 318.27 58.54 318.51 58.20 L 327.44 45.54 Z" data-darkreader-inline-fill="" style="--darkreader-inline-fill: #4affe4;" transform="matrix(1, 0, 0, 1, 7.105427357601002e-15, 7.105427357601002e-15)"/>
  <path fill="#009781" d=" M 337.94 63.81 L 332.58 74.47 Q 333.06 74.85 333.06 75.62 Q 333.06 76.13 332.66 76.73 C 327.40 84.79 321.70 92.54 317.77 101.47 Q 313.48 111.23 308.42 120.61 C 304.28 128.29 298.23 136.27 293.27 144.29 Q 291.13 147.74 282.22 160.00 Q 283.43 157.58 284.62 155.19 C 286.59 151.23 289.75 147.71 292.02 143.82 C 295.91 137.18 299.26 131.98 302.79 125.98 C 304.43 123.17 304.91 120.28 305.79 117.18 A 0.71 0.70 -73.7 0 0 305.32 116.31 Q 304.47 116.05 303.78 116.79 Q 299.57 121.37 296.63 126.87 A 0.33 0.33 0.0 0 1 296.03 126.84 Q 295.90 126.51 296.12 126.10 C 303.99 111.33 312.36 97.52 320.51 83.26 Q 323.18 78.59 324.16 73.19 C 324.84 69.45 323.76 68.20 326.88 64.78 Q 326.90 71.45 325.26 77.99 C 324.68 80.32 322.99 81.74 322.09 84.06 C 320.48 88.19 317.40 92.05 315.57 96.18 A 0.31 0.31 0.0 0 0 316.09 96.51 C 323.07 88.52 328.70 81.06 332.26 70.86 Q 333.89 66.22 337.94 63.81 Z" data-darkreader-inline-fill="" style="--darkreader-inline-fill: #0d8573;" transform="matrix(1, 0, 0, 1, 7.105427357601002e-15, 7.105427357601002e-15)"/>
  <path fill="#004164" d=" M 326.81 90.75 Q 320.14 98.23 318.69 101.93 Q 313.78 114.52 306.23 126.77 Q 290.67 152.00 276.51 173.42 C 273.74 177.62 270.93 183.06 267.72 187.76 A 0.90 0.90 0.0 0 1 266.09 187.40 L 265.83 185.87 L 282.22 160.00 Q 291.13 147.74 293.27 144.29 C 298.23 136.27 304.28 128.29 308.42 120.61 Q 313.48 111.23 317.77 101.47 C 321.70 92.54 327.40 84.79 332.66 76.73 Q 333.06 76.13 333.06 75.62 Q 333.06 74.85 332.58 74.47 L 340.83 63.90 A 0.40 0.40 0.0 0 1 341.52 64.27 C 340.17 68.35 337.26 72.05 335.66 75.38 Q 331.69 83.60 326.81 90.75 Z" data-darkreader-inline-fill="" style="--darkreader-inline-fill: #0d405c;" transform="matrix(1, 0, 0, 1, 7.105427357601002e-15, 7.105427357601002e-15)"/>
  <path fill="#009781" d=" M 336.20 86.90 L 329.39 93.78 A 0.53 0.52 54.8 0 1 328.54 93.63 Q 328.42 93.37 328.45 92.98 L 343.49 71.56 A 0.32 0.32 0.0 0 1 344.04 71.90 L 336.20 86.90 Z" data-darkreader-inline-fill="" style="--darkreader-inline-fill: #0d8573;" transform="matrix(1, 0, 0, 1, 7.105427357601002e-15, 7.105427357601002e-15)"/>
  <path fill="#2dffd6" d=" M 305.32 80.28 Q 305.56 79.71 306.10 79.80 A 0.63 0.63 0.0 0 1 306.56 80.70 Q 304.32 85.24 301.80 89.45 C 297.59 96.47 294.29 104.72 290.26 111.52 Q 289.27 113.18 287.14 112.31 Q 286.75 112.15 286.98 111.79 C 287.94 110.33 289.38 109.03 290.09 107.52 Q 296.62 93.77 304.96 81.04 Q 305.06 80.89 305.32 80.28 Z" data-darkreader-inline-fill="" style="--darkreader-inline-fill: #0dbca2;" transform="matrix(1, 0, 0, 1, 7.105427357601002e-15, 7.105427357601002e-15)"/>
  <path fill="#00615e" d=" M 328.43 108.40 L 325.43 111.92 Q 325.25 112.13 325.06 111.93 L 324.85 111.72 Q 324.69 111.56 324.80 111.36 L 326.45 108.43 A 0.36 0.36 0.0 0 0 325.92 107.96 Q 318.18 113.59 319.75 123.27 Q 319.80 123.60 320.02 123.35 C 322.35 120.70 326.29 119.12 328.14 116.83 C 328.85 115.96 329.95 115.24 330.11 114.20 Q 330.27 113.17 329.24 112.70 Q 328.76 112.48 328.77 111.95 L 328.88 108.41 L 335.67 100.46 Q 336.36 99.65 336.42 100.71 L 336.53 102.49 A 0.59 0.59 0.0 0 0 337.58 102.83 L 343.43 95.71 A 0.30 0.30 0.0 0 1 343.91 96.07 C 330.99 115.64 315.11 134.69 300.38 153.85 Q 294.35 161.70 292.33 165.08 C 290.37 168.35 287.55 171.61 286.09 173.69 Q 277.78 185.50 275.34 189.58 Q 272.83 193.78 270.45 196.25 L 269.75 195.74 L 265.30 186.78 Q 265.86 186.45 265.83 185.87 L 266.09 187.40 A 0.90 0.90 0.0 0 0 267.72 187.76 C 270.93 183.06 273.74 177.62 276.51 173.42 Q 290.67 152.00 306.23 126.77 Q 313.78 114.52 318.69 101.93 Q 320.14 98.23 326.81 90.75 Q 324.98 94.24 318.49 105.27 Q 318.24 105.71 318.62 105.93 Q 319.00 106.16 319.26 105.80 L 328.45 92.98 Q 328.42 93.37 328.54 93.63 A 0.53 0.52 54.8 0 0 329.39 93.78 L 336.20 86.90 Q 336.99 87.91 338.18 86.21 Q 339.95 83.66 341.86 81.63 A 0.60 0.60 0.0 0 1 342.81 82.36 Q 335.43 94.56 328.70 106.98 C 328.45 107.43 328.54 107.93 328.43 108.40 Z" data-darkreader-inline-fill="" style="--darkreader-inline-fill: #0d5a57;" transform="matrix(1, 0, 0, 1, 7.105427357601002e-15, 7.105427357601002e-15)"/>
  <path fill="#2dffd6" d=" M 248.92 155.68 L 252.85 163.27 Q 252.68 163.90 253.16 164.81 C 254.28 166.87 254.95 168.88 256.28 170.90 Q 258.26 173.91 259.30 177.44 Q 259.47 178.00 260.24 178.58 Q 260.62 178.87 260.85 179.28 L 264.03 184.99 Q 264.63 186.73 265.30 186.78 L 269.75 195.74 L 269.74 196.92 A 0.60 0.60 0.0 0 1 268.63 197.22 L 266.79 194.19 L 249.32 164.11 L 236.70 141.34 Q 236.50 140.96 236.19 141.26 L 235.98 141.48 Q 235.68 141.78 235.87 142.16 Q 247.77 166.97 259.03 192.07 Q 261.03 196.53 263.75 201.77 Q 266.16 206.44 268.59 211.43 Q 266.37 212.40 263.17 207.86 L 253.22 192.27 L 254.51 189.87 Q 254.74 189.43 254.52 188.99 L 237.13 154.10 Q 237.00 153.84 237.00 153.55 Q 237.00 153.40 237.00 153.24 Q 237.00 152.79 236.74 152.42 C 235.01 150.01 233.85 147.20 231.00 144.26 Q 229.25 142.45 228.01 140.33 Q 223.24 132.18 217.21 124.61 A 0.35 0.35 0.0 0 0 216.62 124.97 L 219.88 132.40 Q 220.00 134.20 220.57 135.44 Q 227.38 150.40 234.29 165.21 Q 234.60 167.98 235.75 170.53 Q 239.90 179.76 242.42 189.57 C 243.01 191.85 243.78 193.81 244.67 195.98 A 0.61 0.61 0.0 0 1 243.69 196.66 C 239.30 192.58 238.17 188.19 234.99 183.49 Q 234.02 182.04 232.81 179.69 Q 223.58 161.65 215.85 142.48 A 0.97 0.93 43.7 0 1 215.82 141.84 Q 216.22 140.55 216.89 141.34 Q 219.98 144.98 222.35 149.11 Q 222.73 149.77 223.46 149.72 A 0.39 0.39 0.0 0 0 223.75 149.11 C 221.49 145.73 220.43 142.03 219.13 138.78 Q 213.93 125.78 209.06 112.64 Q 208.73 111.74 208.27 112.58 Q 207.80 113.43 208.01 114.48 A 0.55 0.55 0.0 0 1 207.60 115.12 L 206.13 115.48 A 1.03 1.03 0.0 0 0 205.52 117.06 Q 208.35 121.23 208.66 126.04 C 208.95 130.53 211.55 135.32 213.13 139.55 C 214.16 142.33 216.31 145.55 217.08 149.01 C 219.84 161.32 227.64 171.63 232.26 183.20 A 0.83 0.83 0.0 0 1 231.30 184.32 Q 228.77 183.71 226.07 180.36 C 222.75 171.30 218.90 162.27 214.17 153.65 C 210.25 146.48 207.07 138.10 201.45 127.08 Q 201.21 126.62 200.72 126.78 L 198.85 127.38 Q 197.59 124.97 196.56 122.46 C 195.15 119.05 195.45 115.12 193.74 111.34 C 192.42 108.44 192.00 106.02 191.12 103.25 A 0.47 0.47 0.0 0 1 191.94 102.82 C 197.49 109.96 200.14 117.26 204.27 124.83 A 0.12 0.12 0.0 0 0 204.49 124.72 C 203.87 123.26 203.68 121.56 203.04 120.12 Q 199.73 112.77 199.65 110.07 C 199.50 104.26 198.05 101.31 197.22 96.73 A 0.37 0.37 0.0 0 1 197.92 96.51 Q 201.19 103.59 204.35 110.41 Q 204.61 110.97 205.01 110.98 Q 205.37 110.99 205.27 110.64 L 198.97 88.88 A 0.60 0.59 21.4 0 1 200.05 88.41 L 203.62 94.32 A 0.48 0.48 0.0 0 0 204.19 94.52 Q 204.35 94.47 204.51 94.42 A 0.23 0.22 56.3 0 0 204.58 94.04 Q 203.56 93.13 203.63 91.67 A 0.50 0.50 0.0 0 1 204.58 91.46 L 209.86 101.66 Q 209.91 101.75 210.01 101.75 Q 210.14 101.75 210.27 101.75 Q 210.42 101.75 210.37 101.61 Q 207.80 94.56 203.47 85.76 Q 203.33 85.48 203.51 85.26 Q 203.76 84.96 203.93 85.31 C 207.74 92.79 211.44 100.77 215.47 107.82 Q 216.25 109.17 215.81 107.67 L 213.75 100.78 Q 213.60 100.25 213.93 99.81 L 215.05 98.35 A 0.79 0.78 -37.1 0 0 215.16 97.62 L 213.05 92.04 A 0.22 0.22 0.0 0 1 213.26 91.75 Q 213.39 91.75 213.51 91.75 Q 213.73 91.75 213.83 91.93 C 216.09 96.03 218.87 100.38 220.92 104.10 C 230.34 121.15 238.56 139.27 248.92 155.68 Z" data-darkreader-inline-fill="" style="--darkreader-inline-fill: #0dbca2;" transform="matrix(1, 0, 0, 1, 7.105427357601002e-15, 7.105427357601002e-15)"/>
  <path fill="#004164" d=" M 328.43 108.40 Q 329.15 108.67 328.88 108.41 L 328.77 111.95 Q 328.76 112.48 329.24 112.70 Q 330.27 113.17 330.11 114.20 C 329.95 115.24 328.85 115.96 328.14 116.83 C 326.29 119.12 322.35 120.70 320.02 123.35 Q 319.80 123.60 319.75 123.27 Q 318.18 113.59 325.92 107.96 A 0.36 0.36 0.0 0 1 326.45 108.43 L 324.80 111.36 Q 324.69 111.56 324.85 111.72 L 325.06 111.93 Q 325.25 112.13 325.43 111.92 L 328.43 108.40 Z" data-darkreader-inline-fill="" style="--darkreader-inline-fill: #d3cfc8;" transform="matrix(1, 0, 0, 1, 7.105427357601002e-15, 7.105427357601002e-15)"/>
  <path fill="#00615e" d=" M 253.16 164.81 Q 252.68 163.90 252.85 163.27 C 256.82 156.46 260.64 149.56 264.80 142.85 Q 266.53 140.07 267.73 136.98 L 283.04 109.94 Q 283.19 109.68 283.49 109.73 Q 283.63 109.75 283.76 109.75 Q 284.03 109.75 283.89 109.99 Q 281.67 113.77 278.17 121.17 Q 271.30 135.67 261.60 151.43 C 259.19 155.34 256.97 159.70 254.52 163.79 Q 254.66 164.74 253.16 164.81 Z" data-darkreader-inline-fill="" style="--darkreader-inline-fill: #0d5a57;" transform="matrix(1, 0, 0, 1, 7.105427357601002e-15, 7.105427357601002e-15)"/>
  <path fill="#2cffaa" d=" M 234.29 165.21 Q 235.09 165.77 234.79 165.86 L 241.82 179.47 Q 241.56 181.18 241.94 182.00 Q 250.89 201.14 259.17 220.59 Q 259.45 221.25 258.74 221.25 L 258.29 221.25 Q 257.74 221.25 257.44 220.79 L 252.80 213.69 Q 251.13 208.86 246.96 203.39 A 0.60 0.60 0.0 0 0 245.89 203.87 C 246.86 208.69 249.98 213.75 252.22 218.22 Q 252.48 218.75 251.95 218.99 L 250.66 219.58 Q 250.04 219.86 250.01 219.18 Q 249.92 217.35 247.55 216.35 L 235.41 194.17 A 0.36 0.35 17.8 0 0 234.78 194.49 L 245.33 215.73 Q 245.30 216.58 244.56 216.71 Q 244.05 216.81 243.79 216.36 C 236.88 204.51 231.99 193.76 226.07 180.36 Q 228.77 183.71 231.30 184.32 A 0.83 0.83 0.0 0 0 232.26 183.20 C 227.64 171.63 219.84 161.32 217.08 149.01 C 216.31 145.55 214.16 142.33 213.13 139.55 C 211.55 135.32 208.95 130.53 208.66 126.04 Q 208.35 121.23 205.52 117.06 A 1.03 1.03 0.0 0 1 206.13 115.48 L 207.60 115.12 A 0.55 0.55 0.0 0 0 208.01 114.48 Q 207.80 113.43 208.27 112.58 Q 208.73 111.74 209.06 112.64 Q 213.93 125.78 219.13 138.78 C 220.43 142.03 221.49 145.73 223.75 149.11 A 0.39 0.39 0.0 0 1 223.46 149.72 Q 222.73 149.77 222.35 149.11 Q 219.98 144.98 216.89 141.34 Q 216.22 140.55 215.82 141.84 A 0.97 0.93 43.7 0 0 215.85 142.48 Q 223.58 161.65 232.81 179.69 Q 234.02 182.04 234.99 183.49 C 238.17 188.19 239.30 192.58 243.69 196.66 A 0.61 0.61 0.0 0 0 244.67 195.98 C 243.78 193.81 243.01 191.85 242.42 189.57 Q 239.90 179.76 235.75 170.53 Q 234.60 167.98 234.29 165.21 Z" data-darkreader-inline-fill="" style="--darkreader-inline-fill: #0dbd88;" transform="matrix(1, 0, 0, 1, 7.105427357601002e-15, 7.105427357601002e-15)"/>
  <path fill="#2cffaa" d=" M 253.22 192.27 C 249.05 185.18 245.87 179.63 241.13 170.84 C 237.65 164.37 233.16 157.84 230.70 150.23 A 1.04 1.03 1.9 0 0 230.10 149.59 C 228.10 148.80 229.10 146.25 227.23 144.77 A 1.92 1.89 8.6 0 1 226.63 143.97 Q 224.18 137.75 219.88 132.40 L 216.62 124.97 A 0.35 0.35 0.0 0 1 217.21 124.61 Q 223.24 132.18 228.01 140.33 Q 229.25 142.45 231.00 144.26 C 233.85 147.20 235.01 150.01 236.74 152.42 Q 237.00 152.79 237.00 153.24 Q 237.00 153.40 237.00 153.55 Q 237.00 153.84 237.13 154.10 L 254.52 188.99 Q 254.74 189.43 254.51 189.87 L 253.22 192.27 Z" data-darkreader-inline-fill="" style="--darkreader-inline-fill: #0dbd88;" transform="matrix(1, 0, 0, 1, 7.105427357601002e-15, 7.105427357601002e-15)"/>
  <path fill="#00cba3" d=" M 267.73 136.98 Q 266.53 140.07 264.80 142.85 C 260.64 149.56 256.82 156.46 252.85 163.27 L 248.92 155.68 L 261.69 131.66 Q 262.42 132.85 263.48 132.37 Q 264.04 132.11 264.57 131.21 Q 266.52 127.95 268.21 124.82 A 0.70 0.70 0.0 0 1 269.53 125.21 C 269.19 129.48 262.68 139.28 260.33 143.17 A 0.75 0.75 0.0 0 0 261.39 144.19 Q 261.90 143.85 262.26 143.11 Q 264.17 139.19 267.73 136.98 Z" data-darkreader-inline-fill="" style="--darkreader-inline-fill: #0dad8d;" transform="matrix(1, 0, 0, 1, 7.105427357601002e-15, 7.105427357601002e-15)"/>
  <path fill="#00cba3" d=" M 226.07 180.36 C 231.99 193.76 236.88 204.51 243.79 216.36 Q 244.05 216.81 244.56 216.71 Q 245.30 216.58 245.33 215.73 L 251.12 226.20 Q 251.03 227.53 250.19 228.16 Q 249.79 228.46 249.98 228.91 L 250.75 230.72 Q 250.94 231.17 250.55 231.46 Q 250.25 231.69 249.64 231.57 L 248.16 228.82 Q 247.87 228.28 247.47 228.75 Q 239.28 238.25 232.78 248.85 C 230.41 252.71 227.39 256.28 224.99 260.31 Q 224.44 261.23 224.33 260.16 L 224.11 258.10 C 223.99 257.40 224.20 256.46 224.66 255.83 Q 231.25 246.85 237.23 237.46 Q 239.17 234.41 246.39 227.34 Q 246.83 226.91 246.53 226.38 L 244.59 223.04 A 0.33 0.32 -51.6 0 0 244.00 223.11 Q 243.10 225.95 241.39 228.43 Q 232.99 240.59 224.74 252.90 Q 224.85 248.72 226.78 246.04 Q 233.65 236.54 236.98 230.54 A 1.15 1.12 -86.9 0 1 237.48 230.08 Q 238.34 229.68 238.46 228.35 A 1.48 1.13 -34.5 0 0 235.89 228.22 Q 226.45 244.74 213.74 258.97 Q 213.07 259.73 212.68 258.79 L 212.29 257.84 A 0.49 0.48 62.8 0 0 211.59 257.61 Q 210.27 258.44 209.86 259.92 Q 209.67 260.62 209.03 260.27 L 208.37 259.92 A 0.66 0.66 0.0 0 1 208.12 258.99 L 218.51 242.03 A 0.16 0.16 0.0 0 0 218.42 241.79 Q 217.65 241.57 217.69 242.30 Q 217.72 243.00 217.05 242.82 L 216.28 242.62 Q 215.70 242.47 215.97 241.94 Q 217.56 238.83 218.43 237.68 C 223.16 231.44 227.40 225.17 232.75 219.16 Q 235.95 215.57 238.66 211.89 A 1.80 1.77 -40.5 0 0 238.82 210.03 Q 234.37 201.20 230.17 192.57 Q 229.84 191.89 229.01 191.97 C 228.99 191.40 229.06 190.63 228.80 190.10 C 218.45 169.42 208.35 148.45 198.85 127.38 L 200.72 126.78 Q 201.21 126.62 201.45 127.08 C 207.07 138.10 210.25 146.48 214.17 153.65 C 218.90 162.27 222.75 171.30 226.07 180.36 Z M 235.08 220.64 C 231.69 224.07 227.68 230.37 225.61 234.58 Q 225.40 235.03 225.47 235.51 L 225.80 237.72 A 0.48 0.47 -25.4 0 0 226.59 238.00 Q 234.05 231.17 236.09 221.18 A 0.60 0.60 0.0 0 0 235.08 220.64 Z" data-darkreader-inline-fill="" style="--darkreader-inline-fill: #0dad8d;" transform="matrix(1, 0, 0, 1, 7.105427357601002e-15, 7.105427357601002e-15)"/>
  <rect fill="#00cba3" x="-0.53" y="-20.37" transform="matrix(0.864274795255589, 0.5030199581387502, -0.5030199581387502, 0.864274795255589, 266.3399963378907, 149.86999511718753)" width="1.06" height="40.74" rx="0.51" data-darkreader-inline-fill="" style="--darkreader-inline-fill: #0dad8d;"/>
  <path fill="#00cba3" d=" M 219.88 132.40 Q 224.18 137.75 226.63 143.97 A 1.92 1.89 8.6 0 0 227.23 144.77 C 229.10 146.25 228.10 148.80 230.10 149.59 A 1.04 1.03 1.9 0 1 230.70 150.23 C 233.16 157.84 237.65 164.37 241.13 170.84 C 245.87 179.63 249.05 185.18 253.22 192.27 L 263.17 207.86 Q 263.39 208.72 263.19 209.15 Q 262.91 209.75 262.55 209.20 Q 259.52 204.75 256.76 200.13 C 254.73 196.75 251.96 193.75 249.61 190.42 A 0.88 0.88 0.0 0 0 248.07 191.26 Q 251.59 199.95 255.84 208.86 C 258.07 213.54 261.59 217.74 263.72 221.94 C 265.93 226.30 273.74 243.96 277.38 245.59 Q 277.85 245.80 278.13 246.23 C 287.82 261.13 294.26 270.96 300.75 285.32 Q 295.27 277.43 290.45 269.31 Q 289.65 267.95 288.54 268.08 Q 287.98 268.15 288.15 268.68 L 291.51 279.16 A 0.67 0.67 0.0 0 1 290.27 279.64 Q 285.43 269.04 280.60 259.13 Q 280.29 258.50 279.89 258.47 Q 279.37 258.43 278.87 259.15 L 270.49 240.58 Q 270.24 240.02 269.77 240.41 Q 268.85 241.16 269.47 242.53 Q 271.88 247.86 274.32 253.17 C 275.53 255.77 276.91 260.19 278.98 263.46 Q 279.28 263.94 279.74 263.60 L 280.62 262.95 Q 283.04 267.54 284.72 272.44 C 285.35 274.30 286.78 276.42 287.03 278.68 A 0.65 0.65 0.0 0 1 285.85 279.11 C 281.88 273.19 278.72 267.67 275.52 260.77 Q 264.58 237.17 252.80 213.69 L 257.44 220.79 Q 257.74 221.25 258.29 221.25 L 258.74 221.25 Q 259.45 221.25 259.17 220.59 Q 250.89 201.14 241.94 182.00 Q 241.56 181.18 241.82 179.47 Q 242.24 179.96 242.91 179.56 A 1.00 0.99 -30.2 0 0 243.27 178.22 L 236.29 165.50 A 0.61 0.61 0.0 0 0 235.47 165.25 Q 235.10 165.45 234.79 165.86 Q 235.09 165.77 234.29 165.21 Q 227.38 150.40 220.57 135.44 Q 220.00 134.20 219.88 132.40 Z" data-darkreader-inline-fill="" style="--darkreader-inline-fill: #0dad8d;" transform="matrix(1, 0, 0, 1, 7.105427357601002e-15, 7.105427357601002e-15)"/>
  <rect x="-8.00" y="-8.13" transform="matrix(0.9999984769132424, -0.0017453283919057019, 0.0017453283919057019, 0.9999984769132424, 105.50000000000003, 142.61999511718753)" width="16.00" height="16.26" rx="0.57" style="--darkreader-inline-fill: #ffcd41; fill: rgb(137, 137, 136);" data-darkreader-inline-fill=""/>
  <path fill="#00cba3" d=" M 249.32 164.11 Q 251.34 173.81 256.58 182.77 L 262.92 195.57 Q 265.36 200.90 267.85 206.21 Q 268.02 206.56 268.28 206.68 Q 268.62 206.83 269.03 206.73 Q 269.51 206.62 269.30 206.18 L 267.90 203.16 Q 267.73 202.81 268.02 202.54 L 268.64 201.99 Q 269.00 201.67 268.78 201.23 L 265.67 195.09 Q 265.43 194.62 265.95 194.54 Q 266.43 194.46 266.79 194.19 L 268.63 197.22 A 0.60 0.60 0.0 0 0 269.74 196.92 L 269.75 195.74 L 270.45 196.25 L 270.53 197.05 Q 270.57 197.52 270.78 197.95 C 278.08 213.16 286.60 227.98 294.44 243.13 C 303.45 260.53 312.95 277.56 321.74 295.08 Q 322.22 296.86 318.91 295.86 Q 318.40 295.71 318.17 295.24 Q 313.18 285.01 306.96 275.49 A 1.15 1.09 26.9 0 1 306.80 275.04 Q 306.59 273.02 305.16 271.49 A 1.65 1.60 18.7 0 1 304.77 270.73 Q 304.22 268.18 301.99 265.00 Q 299.62 261.60 295.67 251.77 A 1.24 1.20 -89.1 0 0 295.07 251.13 Q 293.52 250.42 293.74 248.74 A 1.40 1.39 30.7 0 0 293.48 247.74 Q 292.00 245.74 290.97 242.83 Q 289.39 238.38 285.61 235.13 Q 278.97 222.08 272.08 208.93 Q 271.56 207.95 270.88 207.75 A 0.35 0.35 0.0 0 0 270.47 208.25 C 275.87 218.83 280.73 230.58 288.48 244.79 Q 290.60 248.67 292.32 252.65 C 292.97 257.45 295.36 261.02 297.07 264.75 Q 302.03 275.57 307.51 286.49 C 304.82 284.92 304.63 282.54 302.79 280.18 C 301.52 278.56 300.48 275.54 299.87 274.38 Q 295.34 265.77 291.67 256.75 C 290.93 254.95 289.42 253.33 288.70 251.80 Q 278.95 231.28 268.59 211.43 Q 266.16 206.44 263.75 201.77 Q 261.03 196.53 259.03 192.07 Q 247.77 166.97 235.87 142.16 Q 235.68 141.78 235.98 141.48 L 236.19 141.26 Q 236.50 140.96 236.70 141.34 L 249.32 164.11 Z" data-darkreader-inline-fill="" style="--darkreader-inline-fill: #0dad8d;" transform="matrix(1, 0, 0, 1, 7.105427357601002e-15, 7.105427357601002e-15)"/>
  <path d=" M 34.80 169.24 Q 34.81 170.18 35.37 169.43 C 48.28 152.24 72.57 155.93 81.92 174.27 Q 88.31 186.82 84.53 201.31 C 80.68 216.10 66.47 227.64 50.75 222.48 Q 41.94 219.60 37.27 211.76 A 0.17 0.16 30.0 0 0 36.96 211.84 L 37.02 247.12 Q 37.02 247.75 36.38 247.75 L 21.22 247.75 A 0.78 0.77 0.4 0 1 20.44 246.97 L 20.73 160.35 A 0.85 0.85 0.0 0 1 21.58 159.50 L 34.24 159.50 A 0.50 0.50 0.0 0 1 34.74 159.99 L 34.80 169.24 Z M 40.69 176.94 C 38.41 179.01 37.01 181.14 37.01 184.48 C 37.00 189.02 36.11 195.95 38.17 199.95 C 41.61 206.60 48.74 210.77 55.95 209.37 C 73.31 206.01 74.27 178.74 57.52 172.98 Q 48.47 169.87 40.69 176.94 Z" style="--darkreader-inline-fill: #ffcd41; fill: rgb(137, 137, 136);" data-darkreader-inline-fill="" transform="matrix(1, 0, 0, 1, 7.105427357601002e-15, 7.105427357601002e-15)"/>
  <path d=" M 142.80 169.50 A 0.22 0.22 0.0 0 0 143.20 169.63 C 154.81 153.98 175.69 154.95 187.23 169.87 C 201.39 188.18 192.32 224.76 164.82 223.51 Q 152.71 222.95 145.09 211.74 A 0.07 0.07 0.0 0 0 144.96 211.77 L 145.02 246.99 Q 145.02 247.75 144.26 247.75 L 129.34 247.75 A 0.66 0.65 90.0 0 1 128.69 247.09 L 128.61 160.44 A 0.95 0.94 0.0 0 1 129.56 159.50 L 142.24 159.50 A 0.50 0.49 0.0 0 1 142.74 159.99 L 142.80 169.50 Z M 172.39 204.50 C 186.58 188.41 169.02 161.71 149.49 176.05 Q 147.70 177.37 146.10 180.14 C 144.27 183.31 144.39 196.38 146.05 199.67 C 151.09 209.65 164.20 213.78 172.39 204.50 Z" style="--darkreader-inline-fill: #ffcd41; fill: rgb(137, 137, 136);" data-darkreader-inline-fill="" transform="matrix(1, 0, 0, 1, 7.105427357601002e-15, 7.105427357601002e-15)"/>
  <rect x="97.50" y="159.49" width="16.00" height="63.00" rx="0.82" style="--darkreader-inline-fill: #ffcd41; fill: rgb(137, 137, 136);" data-darkreader-inline-fill="" transform="matrix(1, 0, 0, 1, 7.105427357601002e-15, 7.105427357601002e-15)"/>
  <path fill="#2cffaa" d=" M 249.32 164.11 L 266.79 194.19 Q 266.43 194.46 265.95 194.54 Q 265.43 194.62 265.67 195.09 L 268.78 201.23 Q 269.00 201.67 268.64 201.99 L 268.02 202.54 Q 267.73 202.81 267.90 203.16 L 269.30 206.18 Q 269.51 206.62 269.03 206.73 Q 268.62 206.83 268.28 206.68 Q 268.02 206.56 267.85 206.21 Q 265.36 200.90 262.92 195.57 Q 264.26 195.47 264.46 194.58 Q 264.59 194.03 264.06 193.14 Q 260.91 187.77 258.23 182.43 A 0.97 0.97 0.0 0 0 256.81 182.07 Q 256.32 182.41 256.58 182.77 Q 251.34 173.81 249.32 164.11 Z" data-darkreader-inline-fill="" style="--darkreader-inline-fill: #0dbd88;" transform="matrix(1, 0, 0, 1, 7.105427357601002e-15, 7.105427357601002e-15)"/>
  <path fill="#00615e" d=" M 241.82 179.47 L 234.79 165.86 Q 235.10 165.45 235.47 165.25 A 0.61 0.61 0.0 0 1 236.29 165.50 L 243.27 178.22 A 1.00 0.99 -30.2 0 1 242.91 179.56 Q 242.24 179.96 241.82 179.47 Z" data-darkreader-inline-fill="" style="--darkreader-inline-fill: #d4d0c9;" transform="matrix(1, 0, 0, 1, 7.105427357601002e-15, 7.105427357601002e-15)"/>
  <path fill="#2dffd6" d=" M 262.92 195.57 L 256.58 182.77 Q 256.32 182.41 256.81 182.07 A 0.97 0.97 0.0 0 1 258.23 182.43 Q 260.91 187.77 264.06 193.14 Q 264.59 194.03 264.46 194.58 Q 264.26 195.47 262.92 195.57 Z" data-darkreader-inline-fill="" style="--darkreader-inline-fill: #45ffe3;" transform="matrix(1, 0, 0, 1, 7.105427357601002e-15, 7.105427357601002e-15)"/>
  <path fill="#2cffaa" d=" M 263.17 207.86 Q 266.37 212.40 268.59 211.43 Q 278.95 231.28 288.70 251.80 C 289.42 253.33 290.93 254.95 291.67 256.75 Q 295.34 265.77 299.87 274.38 C 300.48 275.54 301.52 278.56 302.79 280.18 C 304.63 282.54 304.82 284.92 307.51 286.49 Q 309.77 292.46 312.81 298.34 C 315.32 303.18 316.85 307.51 318.49 312.33 A 0.51 0.51 0.0 0 1 317.57 312.76 L 300.75 285.32 C 294.26 270.96 287.82 261.13 278.13 246.23 Q 277.85 245.80 277.38 245.59 C 273.74 243.96 265.93 226.30 263.72 221.94 C 261.59 217.74 258.07 213.54 255.84 208.86 Q 251.59 199.95 248.07 191.26 A 0.88 0.88 0.0 0 1 249.61 190.42 C 251.96 193.75 254.73 196.75 256.76 200.13 Q 259.52 204.75 262.55 209.20 Q 262.91 209.75 263.19 209.15 Q 263.39 208.72 263.17 207.86 Z" data-darkreader-inline-fill="" style="--darkreader-inline-fill: #0dbd88;" transform="matrix(1, 0, 0, 1, 7.105427357601002e-15, 7.105427357601002e-15)"/>
  <path fill="#2cffaa" d=" M 229.01 191.97 Q 229.84 191.89 230.17 192.57 Q 234.37 201.20 238.82 210.03 A 1.80 1.77 -40.5 0 1 238.66 211.89 Q 235.95 215.57 232.75 219.16 C 227.40 225.17 223.16 231.44 218.43 237.68 Q 217.56 238.83 215.97 241.94 Q 215.70 242.47 216.28 242.62 L 217.05 242.82 Q 217.72 243.00 217.69 242.30 Q 217.65 241.57 218.42 241.79 A 0.16 0.16 0.0 0 1 218.51 242.03 L 208.12 258.99 A 0.66 0.66 0.0 0 0 208.37 259.92 L 209.03 260.27 Q 209.67 260.62 209.86 259.92 Q 210.27 258.44 211.59 257.61 A 0.49 0.48 62.8 0 1 212.29 257.84 L 212.68 258.79 Q 213.07 259.73 213.74 258.97 Q 226.45 244.74 235.89 228.22 A 1.48 1.13 -34.5 0 1 238.46 228.35 Q 238.34 229.68 237.48 230.08 A 1.15 1.12 -86.9 0 0 236.98 230.54 Q 233.65 236.54 226.78 246.04 Q 224.85 248.72 224.74 252.90 Q 221.80 255.99 220.27 260.07 Q 220.10 260.54 219.64 260.75 Q 218.51 261.26 218.58 260.02 L 206.19 274.44 A 0.43 0.43 0.0 0 1 205.46 274.01 L 209.64 262.03 A 0.46 0.46 0.0 0 0 208.82 261.64 L 206.16 265.88 A 0.62 0.62 0.0 0 1 205.05 265.76 L 204.80 265.07 Q 204.54 264.38 204.01 264.89 L 199.60 269.12 A 0.60 0.60 0.0 0 1 198.62 268.51 C 199.30 266.35 201.56 264.18 199.90 261.87 L 202.14 258.37 Q 202.40 257.96 202.15 257.54 L 202.02 257.31 Q 201.95 257.20 202.01 257.08 L 203.28 254.11 Q 203.82 252.85 202.91 253.87 Q 201.18 255.81 200.34 258.31 A 0.99 0.98 3.2 0 1 199.62 258.95 Q 198.07 259.28 197.92 258.25 L 200.38 251.67 L 231.33 199.13 Q 231.62 198.64 231.08 198.50 Q 230.84 198.43 230.58 198.51 Q 230.24 198.63 229.95 199.13 Q 225.61 206.77 220.76 214.02 L 219.01 213.86 Q 218.36 213.80 218.68 213.23 L 225.40 201.13 Q 225.63 200.70 225.43 200.26 Q 225.10 199.53 224.37 199.21 L 229.01 191.97 Z M 205.73 246.83 L 206.45 247.27 A 0.21 0.21 0.0 0 0 206.73 247.20 L 206.79 247.12 A 51.69 0.53 -58.3 0 0 233.50 202.86 L 233.33 202.76 A 51.69 0.53 -58.3 0 0 205.71 246.46 L 205.66 246.54 A 0.21 0.21 0.0 0 0 205.73 246.83 Z" data-darkreader-inline-fill="" style="--darkreader-inline-fill: #0dbd88;" transform="matrix(1, 0, 0, 1, 7.105427357601002e-15, 7.105427357601002e-15)"/>
  <path fill="#004164" d=" M 247.55 216.35 C 255.04 229.64 262.75 242.61 269.73 256.22 C 275.86 268.17 284.20 280.58 292.34 291.20 C 295.32 295.09 297.41 298.82 298.52 302.99 Q 298.67 303.57 298.14 303.71 Q 297.79 303.81 297.65 303.47 Q 295.81 299.04 292.70 295.23 Q 290.87 291.25 287.54 287.87 A 0.44 0.44 0.0 0 0 286.80 288.26 Q 287.82 293.60 290.54 298.37 L 290.70 301.83 A 0.34 0.34 0.0 0 1 290.07 302.01 C 289.35 300.80 288.37 299.64 287.77 298.37 Q 270.60 261.70 251.12 226.20 L 245.33 215.73 L 234.78 194.49 A 0.36 0.35 17.8 0 1 235.41 194.17 L 247.55 216.35 Z" data-darkreader-inline-fill="" style="--darkreader-inline-fill: #0d405c;" transform="matrix(1, 0, 0, 1, 7.105427357601002e-15, 7.105427357601002e-15)"/>
  <path fill="#00615e" d=" M 200.38 251.67 Q 199.53 252.07 199.29 251.88 Q 199.08 251.72 199.40 251.18 C 200.47 249.33 201.99 246.20 198.61 245.89 L 210.36 224.29 C 214.58 226.67 219.05 216.69 220.76 214.02 Q 225.61 206.77 229.95 199.13 Q 230.24 198.63 230.58 198.51 Q 230.84 198.43 231.08 198.50 Q 231.62 198.64 231.33 199.13 L 200.38 251.67 Z" data-darkreader-inline-fill="" style="--darkreader-inline-fill: #0d5a57;" transform="matrix(1, 0, 0, 1, 7.105427357601002e-15, 7.105427357601002e-15)"/>
  <path fill="#00cba3" d=" M 224.37 199.21 Q 225.10 199.53 225.43 200.26 Q 225.63 200.70 225.40 201.13 L 218.68 213.23 Q 218.36 213.80 219.01 213.86 L 220.76 214.02 C 219.05 216.69 214.58 226.67 210.36 224.29 L 224.37 199.21 Z" data-darkreader-inline-fill="" style="--darkreader-inline-fill: #0dad8d;" transform="matrix(1, 0, 0, 1, 7.105427357601002e-15, 7.105427357601002e-15)"/>
  <path fill="#00cba3" d=" M 205.73 246.83 A 0.21 0.21 0.0 0 1 205.66 246.54 L 205.71 246.46 A 51.69 0.53 -58.3 0 1 233.33 202.76 L 233.50 202.86 A 51.69 0.53 -58.3 0 1 206.79 247.12 L 206.73 247.20 A 0.21 0.21 0.0 0 1 206.45 247.27 L 205.73 246.83 Z" data-darkreader-inline-fill="" style="--darkreader-inline-fill: #0dad8d;" transform="matrix(1, 0, 0, 1, 7.105427357601002e-15, 7.105427357601002e-15)"/>
  <path fill="#009781" d=" M 252.80 213.69 Q 264.58 237.17 275.52 260.77 C 278.72 267.67 281.88 273.19 285.85 279.11 A 0.65 0.65 0.0 0 0 287.03 278.68 C 286.78 276.42 285.35 274.30 284.72 272.44 Q 283.04 267.54 280.62 262.95 L 278.87 259.15 Q 279.37 258.43 279.89 258.47 Q 280.29 258.50 280.60 259.13 Q 285.43 269.04 290.27 279.64 A 0.67 0.67 0.0 0 0 291.51 279.16 L 288.15 268.68 Q 287.98 268.15 288.54 268.08 Q 289.65 267.95 290.45 269.31 Q 295.27 277.43 300.75 285.32 L 317.57 312.76 A 0.51 0.51 0.0 0 0 318.49 312.33 C 316.85 307.51 315.32 303.18 312.81 298.34 Q 309.77 292.46 307.51 286.49 Q 302.03 275.57 297.07 264.75 C 295.36 261.02 292.97 257.45 292.32 252.65 Q 297.76 264.73 305.15 275.80 A 0.67 0.67 0.0 0 0 306.28 275.78 Q 306.69 275.12 306.30 274.92 Q 306.00 274.77 305.87 274.45 C 304.61 271.12 302.37 269.24 301.10 265.95 Q 300.17 263.58 298.71 261.47 C 296.63 258.46 294.68 253.92 293.30 250.58 C 291.15 245.38 287.71 240.63 285.61 235.13 Q 289.39 238.38 290.97 242.83 Q 292.00 245.74 293.48 247.74 A 1.40 1.39 30.7 0 1 293.74 248.74 Q 293.52 250.42 295.07 251.13 A 1.24 1.20 -89.1 0 1 295.67 251.77 Q 299.62 261.60 301.99 265.00 Q 304.22 268.18 304.77 270.73 A 1.65 1.60 18.7 0 0 305.16 271.49 Q 306.59 273.02 306.80 275.04 A 1.15 1.09 26.9 0 0 306.96 275.49 Q 313.18 285.01 318.17 295.24 Q 318.40 295.71 318.91 295.86 Q 322.22 296.86 321.74 295.08 Q 326.47 303.13 328.68 307.71 Q 333.33 317.35 327.01 308.71 Q 322.90 303.09 318.26 297.95 Q 315.71 295.14 316.75 298.79 C 319.70 309.21 325.07 319.07 327.46 329.07 A 0.68 0.67 15.6 0 1 326.33 329.70 Q 319.98 323.44 315.33 315.70 C 314.16 313.76 312.31 312.49 311.04 310.70 Q 308.59 301.61 301.96 294.83 A 0.08 0.08 0.0 0 0 301.82 294.90 L 308.53 322.34 Q 308.57 322.50 308.74 322.50 Q 308.87 322.50 309.01 322.50 A 0.23 0.23 0.0 0 0 309.23 322.21 Q 307.84 317.24 309.54 312.84 L 311.90 327.93 A 0.58 0.58 0.0 0 1 311.28 328.59 Q 310.82 328.55 310.39 327.89 Q 306.70 322.21 301.07 317.68 Q 299.04 315.84 298.20 312.06 Q 297.97 311.01 298.94 311.46 L 300.08 311.98 A 0.59 0.59 0.0 0 0 300.79 311.08 Q 295.15 303.83 292.70 295.23 Q 295.81 299.04 297.65 303.47 Q 297.79 303.81 298.14 303.71 Q 298.67 303.57 298.52 302.99 C 297.41 298.82 295.32 295.09 292.34 291.20 C 284.20 280.58 275.86 268.17 269.73 256.22 C 262.75 242.61 255.04 229.64 247.55 216.35 Q 249.92 217.35 250.01 219.18 Q 250.04 219.86 250.66 219.58 L 251.95 218.99 Q 252.48 218.75 252.22 218.22 C 249.98 213.75 246.86 208.69 245.89 203.87 A 0.60 0.60 0.0 0 1 246.96 203.39 Q 251.13 208.86 252.80 213.69 Z" data-darkreader-inline-fill="" style="--darkreader-inline-fill: #0d8573;" transform="matrix(1, 0, 0, 1, 7.105427357601002e-15, 7.105427357601002e-15)"/>
  <path fill="#00615e" d=" M 285.61 235.13 C 287.71 240.63 291.15 245.38 293.30 250.58 C 294.68 253.92 296.63 258.46 298.71 261.47 Q 300.17 263.58 301.10 265.95 C 302.37 269.24 304.61 271.12 305.87 274.45 Q 306.00 274.77 306.30 274.92 Q 306.69 275.12 306.28 275.78 A 0.67 0.67 0.0 0 1 305.15 275.80 Q 297.76 264.73 292.32 252.65 Q 290.60 248.67 288.48 244.79 C 280.73 230.58 275.87 218.83 270.47 208.25 A 0.35 0.35 0.0 0 1 270.88 207.75 Q 271.56 207.95 272.08 208.93 Q 278.97 222.08 285.61 235.13 Z" data-darkreader-inline-fill="" style="--darkreader-inline-fill: #0d5a57;" transform="matrix(1, 0, 0, 1, 7.105427357601002e-15, 7.105427357601002e-15)"/>
  <path fill="#009781" d=" M 235.08 220.64 A 0.60 0.60 0.0 0 1 236.09 221.18 Q 234.05 231.17 226.59 238.00 A 0.48 0.47 -25.4 0 1 225.80 237.72 L 225.47 235.51 Q 225.40 235.03 225.61 234.58 C 227.68 230.37 231.69 224.07 235.08 220.64 Z" data-darkreader-inline-fill="" style="--darkreader-inline-fill: #6efff2;" transform="matrix(1, 0, 0, 1, 7.105427357601002e-15, 7.105427357601002e-15)"/>
  <path fill="#00615e" d=" M 224.11 258.10 Q 222.87 258.73 222.52 259.29 Q 217.89 266.65 212.85 273.74 Q 212.53 274.18 212.26 273.72 Q 212.17 273.57 212.16 273.40 Q 212.15 273.27 212.26 273.10 Q 216.07 267.32 218.58 260.02 Q 218.51 261.26 219.64 260.75 Q 220.10 260.54 220.27 260.07 Q 221.80 255.99 224.74 252.90 Q 232.99 240.59 241.39 228.43 Q 243.10 225.95 244.00 223.11 A 0.33 0.32 -51.6 0 1 244.59 223.04 L 246.53 226.38 Q 246.83 226.91 246.39 227.34 Q 239.17 234.41 237.23 237.46 Q 231.25 246.85 224.66 255.83 C 224.20 256.46 223.99 257.40 224.11 258.10 Z" data-darkreader-inline-fill="" style="--darkreader-inline-fill: #0d5a57;" transform="matrix(1, 0, 0, 1, 7.105427357601002e-15, 7.105427357601002e-15)"/>
  <path fill="#009781" d=" M 251.12 226.20 Q 270.60 261.70 287.77 298.37 C 288.37 299.64 289.35 300.80 290.07 302.01 A 0.34 0.34 0.0 0 0 290.70 301.83 L 290.54 298.37 Q 295.16 310.14 299.84 321.83 C 300.43 323.28 300.73 325.07 301.06 326.61 C 301.39 328.20 302.32 329.05 303.00 330.50 A 0.62 0.60 62.1 0 1 302.77 331.28 L 300.89 332.46 C 296.53 323.87 292.62 314.84 288.09 306.63 Q 284.18 299.54 280.33 292.42 C 273.92 280.56 267.00 265.62 261.46 255.74 C 257.01 247.77 253.26 239.62 249.64 231.57 Q 250.25 231.69 250.55 231.46 Q 250.94 231.17 250.75 230.72 L 249.98 228.91 Q 249.79 228.46 250.19 228.16 Q 251.03 227.53 251.12 226.20 Z" data-darkreader-inline-fill="" style="--darkreader-inline-fill: #0d8573;" transform="matrix(1, 0, 0, 1, 7.105427357601002e-15, 7.105427357601002e-15)"/>
  <path fill="#2cffaa" d=" M 278.87 259.15 L 280.62 262.95 L 279.74 263.60 Q 279.28 263.94 278.98 263.46 C 276.91 260.19 275.53 255.77 274.32 253.17 Q 271.88 247.86 269.47 242.53 Q 268.85 241.16 269.77 240.41 Q 270.24 240.02 270.49 240.58 L 278.87 259.15 Z" data-darkreader-inline-fill="" style="--darkreader-inline-fill: #0dbd88;" transform="matrix(1, 0, 0, 1, 7.105427357601002e-15, 7.105427357601002e-15)"/>
  <path fill="#009781" d=" M 198.61 245.89 C 201.99 246.20 200.47 249.33 199.40 251.18 Q 199.08 251.72 199.29 251.88 Q 199.53 252.07 200.38 251.67 L 197.92 258.25 L 196.00 262.46 L 193.63 262.94 Q 192.94 263.08 193.30 262.48 Q 195.85 258.23 197.34 253.48 Q 197.62 252.58 196.85 253.11 L 194.45 254.72 A 0.33 0.33 0.0 0 1 193.97 254.29 L 198.61 245.89 Z" data-darkreader-inline-fill="" style="--darkreader-inline-fill: #6efff2;" transform="matrix(1, 0, 0, 1, 7.105427357601002e-15, 7.105427357601002e-15)"/>
  <path fill="#00cba3" d=" M 199.90 261.87 L 193.32 271.63 A 0.48 0.47 -17.9 0 1 192.48 271.20 C 193.37 268.80 196.03 264.58 196.00 262.46 L 197.92 258.25 Q 198.07 259.28 199.62 258.95 A 0.99 0.98 3.2 0 0 200.34 258.31 Q 201.18 255.81 202.91 253.87 Q 203.82 252.85 203.28 254.11 L 202.01 257.08 Q 201.95 257.20 202.02 257.31 L 202.15 257.54 Q 202.40 257.96 202.14 258.37 L 199.90 261.87 Z" data-darkreader-inline-fill="" style="--darkreader-inline-fill: #4affe4;" transform="matrix(1, 0, 0, 1, 7.105427357601002e-15, 7.105427357601002e-15)"/>
  <path fill="#00cba3" d=" M 292.70 295.23 Q 295.15 303.83 300.79 311.08 A 0.59 0.59 0.0 0 1 300.08 311.98 L 298.94 311.46 Q 297.97 311.01 298.20 312.06 Q 299.04 315.84 301.07 317.68 L 310.46 342.82 Q 310.69 343.43 310.05 343.28 C 305.65 342.25 303.08 337.05 300.89 332.46 L 302.77 331.28 A 0.62 0.60 62.1 0 0 303.00 330.50 C 302.32 329.05 301.39 328.20 301.06 326.61 C 300.73 325.07 300.43 323.28 299.84 321.83 Q 295.16 310.14 290.54 298.37 Q 287.82 293.60 286.80 288.26 A 0.44 0.44 0.0 0 1 287.54 287.87 Q 290.87 291.25 292.70 295.23 Z" data-darkreader-inline-fill="" style="--darkreader-inline-fill: #0dad8d;" transform="matrix(1, 0, 0, 1, 7.105427357601002e-15, 7.105427357601002e-15)"/>
  <path fill="#004164" d=" M 311.04 310.70 Q 309.72 310.36 309.54 312.84 Q 307.84 317.24 309.23 322.21 A 0.23 0.23 0.0 0 1 309.01 322.50 Q 308.87 322.50 308.74 322.50 Q 308.57 322.50 308.53 322.34 L 301.82 294.90 A 0.08 0.08 0.0 0 1 301.96 294.83 Q 308.59 301.61 311.04 310.70 Z" data-darkreader-inline-fill="" style="--darkreader-inline-fill: #0d405c;" transform="matrix(1, 0, 0, 1, 7.105427357601002e-15, 7.105427357601002e-15)"/>
</svg>
